# xmcd CD database file
#
# Track frame offsets:
#	150
#	18003
#	39543
#	59936
#	79623
#	97158
#	117114
#	137311
#	150119
#	164947
#	183729
#	203144
#	218705
#	238583
#	254073
#	265704
#	280352
#	303487
#	320060
#	332191
#
# Disc length: 4645 seconds
#
# Revision: 0
# Processed by: cddbd v1.5.1PL2 Copyright (c) Steve Scherf et al.
# Submitted via: CDex 1.51
#
DISCID=29122314
DTITLE=Cellar Jazzband - What A Wonderful World
DYEAR=2003
DGENRE=Jazz
TTITLE0=Milenburg Joys
TTITLE1=Fantastic, That's You
TTITLE2=Big Butter And Egg Man
TTITLE3=The Home Fire
TTITLE4=Wolverine Blues
TTITLE5=Blue Turning Grey Over You
TTITLE6=It Had To Be You
TTITLE7=Limehouse Blues
TTITLE8=I Guess I Get The Paper And Go Home
TTITLE9=All By Myself
TTITLE10=Aunt Hagar's Blues
TTITLE11=I'm Crazy 'bout My Baby
TTITLE12=I'm Confessin'
TTITLE13=Cornet Chop Suey
TTITLE14=Body And Soul
TTITLE15=It Don't Mean A Thing
TTITLE16=That's My Home
TTITLE17=River Stay Away From My Door
TTITLE18=You're Driving Me Crazy
TTITLE19=What A Wonderful World
EXTD=YEAR: 2003
EXTT0=
EXTT1=
EXTT2=
EXTT3=
EXTT4=
EXTT5=
EXTT6=
EXTT7=
EXTT8=
EXTT9=
EXTT10=
EXTT11=
EXTT12=
EXTT13=
EXTT14=
EXTT15=
EXTT16=
EXTT17=
EXTT18=
EXTT19=
PLAYORDER=
